PathFileType	4	(X/Y/Z)	39_2_40_p1_0-581_filt_butterworth.trc
DataRate	CameraRate	NumFrames	NumMarkers	Units	OrigDataRate	OrigDataStartFrame	OrigNumFrames
49.0	49.0	5	27	m	49.0	435	581
Frame#	Time	RHip			RKnee			RAnkle			RBigToe			RSmallToe			RHeel			LHip			LKnee			LAnkle			LBigToe			LSmallToe			LHeel			Neck			Head			Nose			RShoulder			RElbow			RWrist			RThumb			RIndex			RPinky			LShoulder			LElbow			LWrist			LThumb			LIndex			LPinky			
		X1	Y1	Z1	X2	Y2	Z2	X3	Y3	Z3	X4	Y4	Z4	X5	Y5	Z5	X6	Y6	Z6	X7	Y7	Z7	X8	Y8	Z8	X9	Y9	Z9	X10	Y10	Z10	X11	Y11	Z11	X12	Y12	Z12	X13	Y13	Z13	X14	Y14	Z14	X15	Y15	Z15	X16	Y16	Z16	X17	Y17	Z17	X18	Y18	Z18	X19	Y19	Z19	X20	Y20	Z20	X21	Y21	Z21	X22	Y22	Z22	X23	Y23	Z23	X24	Y24	Z24	X25	Y25	Z25	X26	Y26	Z26	X27	Y27	Z27	
435	8.877551020408163	0.3165227872458396	0.6549211898570663	0.48521541100078536	0.26523480925463233	0.7793407869126474	0.9496507928514712	0.22423796674950533	0.8309187860112218	1.324075545310125	0.20906897259691806	0.6506112240150008	1.3466344566957678	0.28048535044762807	0.6707241323004749	1.3553779096266914	0.19601086954922398	0.9105859271913577	1.3886820484832283	0.08826270349531072	0.6748448015161987	0.4667238932628398	0.06039018032207107	0.7428770676299078	0.9007931699618443	0.029264693840998057	0.834493292384656	1.3028987628590705	0.058434129625890216	0.6411086191425378	1.3250192275741344	0.0005393957957144692	0.6940651670078781	1.3361152085439687	0.04249160860182451	0.87499819712161	1.360507204057966	0.25351365574131035	0.5729738990927847	-0.06767218517205223	0.26418756660428133	0.5224672958361072	-0.29435530658857467	0.23175204724693485	0.44989318426600267	-0.16880868827842377	0.4134993900809234	0.6216688603877666	0.04113659385837199	0.43231987589286824	0.6479060910557048	0.30056462139915296	0.42374558476252877	0.6569095458466887	0.568588683195242	0.35193487223082653	0.6398619594598779	0.6860421838297568	0.3697182373150838	0.6500149085820944	0.7088998145968302	0.40586800770229886	0.7145797470872529	0.7134354711396504	0.0780210627320577	0.6408779328547178	0.00775610505027654	0.009384314355308824	0.6532457119002752	0.2675595820548995	-0.027341239680535513	0.6608526199383306	0.5379590264119741	0.01302748490037951	0.6353500769893539	0.637700495261784	-0.03500087738131194	0.6782135752365762	0.6643110824912717	-0.05181715084964225	0.6530382631113991	0.6423663135193238
436	8.89795918367347	0.3165563586556622	0.6540148685860597	0.4823880017712111	0.26530316088382117	0.7795500058540286	0.949515830221908	0.22410708611816327	0.8299559875615625	1.322381689003872	0.21026833494332356	0.6512380442959347	1.3468429668582402	0.2805915333717106	0.6708599799513026	1.355340633042362	0.19658224038318206	0.9152547100278176	1.3887748736338001	0.08822801956804997	0.6749785019458069	0.46702197362989284	0.06022002827123467	0.7427479587339689	0.8974466876634611	0.02914710323619224	0.8345597876977611	1.3032530188229923	0.05844268494542415	0.6411323621698489	1.325025122546301	0.0006327107130119037	0.6938802551308617	1.3360283714713483	0.04229230050893479	0.8744191793073061	1.35887782517425	0.25297400931602504	0.5741895521650647	-0.06626953408188689	0.2626640402264313	0.5219247422259532	-0.2942608514141702	0.2310558446532198	0.44575628778028054	-0.16871800487327948	0.41349976005179945	0.6218641926057701	0.0411614265172014	0.43235686607065177	0.6479371412577214	0.30066779679703753	0.42530530793752197	0.6629807429436807	0.5686041039720329	0.3536864574082551	0.64530065597205	0.686149394220468	0.37482167299809915	0.6512210309451822	0.707911450609627	0.40929663161701757	0.7219807208913885	0.7131505724565921	0.07802023456030996	0.6408153473454912	0.00779112680408571	0.009625188574942718	0.6523958859693325	0.2679679905956909	-0.027331042412851305	0.6608311948752947	0.5379377575600903	0.015669255644164	0.6296057826648211	0.6363429643119051	-0.03478435758935318	0.6780456564444303	0.6642639446014575	-0.051319257587781136	0.6586637132370048	0.6436939491086173
437	8.918367346938776	0.3167119195317627	0.653345856403774	0.47964546048756973	0.26492455839855045	0.7782012323059931	0.9475177242038889	0.22405326931694663	0.8294542124665265	1.3205408527196987	0.21205674448742276	0.6514025994441	1.346796712041615	0.2807169363030111	0.6710909282320441	1.355325301948072	0.1965482398486875	0.9189532359291963	1.3884478096568154	0.08809838393537917	0.6748309184225785	0.4678883012589797	0.060119503678011714	0.742403192369977	0.8943394668951303	0.029028499195649766	0.8345090493754942	1.3030866030980734	0.058452793806948275	0.6411744440704068	1.325029354063487	0.0006996686654104188	0.6938239608332244	1.335974036945316	0.04210009469253264	0.873533816250644	1.356692078542772	0.25206347234502136	0.5769455683176161	-0.0652680470133768	0.261390562320605	0.5207638276587371	-0.2941134763626896	0.23096080644746886	0.4416649641848864	-0.16856604486164894	0.4135717650351181	0.6222349211584177	0.04126501801934488	0.43235663372314115	0.6480420611427254	0.30078380241660885	0.4261831923547724	0.6655727030039332	0.5665760453052625	0.355769244720557	0.6493214448183455	0.6862827297723728	0.3781180187306822	0.6511974150889314	0.7077882523195294	0.4115038842828518	0.7258423376160817	0.712862795595171	0.07801356964641208	0.6407046452627405	0.0078165362092006	0.009481376904388217	0.6524917338243561	0.26832826956576794	-0.027315054068895804	0.6607853448894021	0.5379156640686302	0.017325205880692564	0.6256368156234378	0.6353830351824318	-0.034363285330466405	0.6771493384993357	0.6640840967869293	-0.050917444136375105	0.6625272421656043	0.64457838659935
438	8.938775510204081	0.31687137052202596	0.653262366115113	0.47836438198245845	0.26366808843317324	0.7736786799738025	0.9429962380613767	0.22395566322344512	0.8292255513288129	1.3192787320157464	0.21412047781453558	0.65067903547732	1.346361625195474	0.2807978177913548	0.6711750555649113	1.3553039969811762	0.1960990751326589	0.9193391551623309	1.3882113211013916	0.08804946429665234	0.6747613210442756	0.4683214566503789	0.06011805964982804	0.742175249638443	0.8932932036163366	0.029339852015822437	0.8348225374349002	1.3028989558734163	0.05845897345567276	0.6412646701033787	1.3250492498408923	0.0007068845314971689	0.6938676078471218	1.3359559607565252	0.04203645188586997	0.8728344900450946	1.355223686630111	0.25154685122715625	0.5787106794953674	-0.0650009629759424	0.26038066928444786	0.5175968789813528	-0.2939344837024368	0.2311645200327075	0.4371127519833278	-0.16834195152006115	0.41368051671138756	0.6214818886345053	0.04134576878090059	0.4323617036491106	0.6481391678679167	0.3005031782852089	0.42634973217144956	0.6651911232103118	0.5638818465588545	0.357552734535154	0.6506819915357512	0.6864432741565447	0.37924017591236503	0.65105720043962	0.7068324112257395	0.41201925721393073	0.7260428321028435	0.7125952370349634	0.07801610100738421	0.6406530271753725	0.00783479436452921	0.009576514709788335	0.6522906259668153	0.2682440088550288	-0.027314630693010412	0.6607747751561543	0.5379049073799909	0.017644514298445307	0.6247712172440248	0.6351490280016189	-0.03275299442587613	0.6735006738418357	0.6632095699020261	-0.05067725829687605	0.6634252707787183	0.6447534124216592
439	8.959183673469388	0.31693838732791446	0.653481118714065	0.47830387944220676	0.26203228974941134	0.7675563309454042	0.9383588554407136	0.2239121106057442	0.8293359464543142	1.3188627777744113	0.21652998861456516	0.6499999042867477	1.3460183453589698	0.28081681182468965	0.6710955951628245	1.3552743887579013	0.19610503787893166	0.9189385915535839	1.387788280982461	0.08814718882466496	0.6748334578477514	0.46843462047541007	0.06009499654788049	0.7421693431122693	0.8935425104086838	0.030506661829795296	0.8358603430654256	1.3027886809674234	0.058448145596850826	0.6414067688295888	1.3250931954401184	0.0006461253655198059	0.6939355386917919	1.3359563174213978	0.042101144718907996	0.8725634376730813	1.354804896681915	0.252091690212076	0.5774377754016715	-0.06508250939239531	0.2593626039924678	0.5129568220530663	-0.2935462834857005	0.23139415102185537	0.43373189786124666	-0.16818869271268902	0.41347018975760513	0.6179170170899285	0.04096597558531633	0.43237014787424727	0.6482726389158207	0.2994186881474058	0.4262019576761225	0.6641799673662323	0.5623491523432677	0.35849806804352424	0.6506923742698322	0.6865459653825221	0.3792609536670354	0.6513122386327237	0.7051207161432071	0.41212329452476204	0.7262551717847828	0.7126940270800706	0.07802108661115928	0.6406431011741213	0.007851276089136876	0.009266437490416436	0.6531971469737538	0.2682108191022341	-0.0273237464399377	0.6608178491596243	0.5379150651286093	0.017448733602915857	0.6252653987259621	0.6352500858433094	-0.030361903774449455	0.6681267611022237	0.6619097806765837	-0.05051038141192707	0.66298899579989	0.6446625307544526
